# xmcd CD database file
#
# Track frame offsets:
#	187
#	12742
#	30492
#	48127
#
# Disc length: 888 seconds
#
# Revision: 0
# Processed by: cddbd v1.5.1PL0 Copyright (c) Steve Scherf et al.
# Submitted via: CDex 1.51
#
DISCID=27037604
DTITLE=Heavens Gate - More Hysteria
DYEAR=1991
DGENRE=Heavy Metal
TTITLE0=Thin, Fake And Bold
TTITLE1=Metal Hymn
TTITLE2=Sidewalk Sinner
TTITLE3=Best Days Of My Life (Acoustic Version)
EXTD=YEAR: 1991
EXTT0=
EXTT1=
EXTT2=
EXTT3=
PLAYORDER=
